<svg width="360" height="144" viewBox="0 0 360 144" fill="none" xmlns="http://www.w3.org/2000/svg">
<path d="M55.3096 135.833C55.3896 135.773 55.4596 135.743 55.5296 135.723C55.5996 135.713 55.6596 135.703 55.6996 135.703C55.7996 135.703 55.8796 135.723 55.9596 135.763C56.0396 135.803 56.1196 135.883 56.2096 136.013L57.1596 137.443C57.1596 137.443 57.2196 137.543 57.2396 137.593C57.2696 137.653 57.2796 137.693 57.2796 137.733C57.2796 137.863 57.2396 137.973 57.1596 138.053C57.0796 138.133 56.9896 138.203 56.8896 138.273C56.4296 138.593 55.9196 138.853 55.3696 139.053C54.8196 139.243 54.2396 139.343 53.6196 139.343C53.1096 139.343 52.6196 139.273 52.1496 139.153C51.6796 139.033 51.2396 138.833 50.8296 138.593C50.4196 138.353 50.0496 138.063 49.7096 137.733C49.3696 137.393 49.0796 137.023 48.8496 136.613C48.6096 136.203 48.4296 135.753 48.2896 135.273C48.1596 134.793 48.0896 134.293 48.0896 133.773C48.0896 133.253 48.1596 132.753 48.2896 132.273C48.4196 131.793 48.6096 131.343 48.8496 130.933C49.0896 130.523 49.3796 130.153 49.7096 129.813C50.0496 129.473 50.4196 129.193 50.8296 128.953C51.2396 128.713 51.6796 128.533 52.1496 128.403C52.6196 128.273 53.1096 128.203 53.6196 128.203C54.2396 128.203 54.8096 128.283 55.3296 128.453C55.8496 128.623 56.3396 128.863 56.7996 129.183L56.7696 129.153C56.8896 129.223 56.9896 129.313 57.0696 129.413C57.1396 129.513 57.1796 129.633 57.1796 129.783C57.1796 129.883 57.1496 129.993 57.0796 130.093L56.3296 131.373C56.1696 131.653 55.9796 131.793 55.7496 131.793C55.6996 131.793 55.6396 131.783 55.5596 131.753C55.4896 131.723 55.3996 131.683 55.3096 131.623C55.0596 131.463 54.7896 131.323 54.5096 131.223C54.2196 131.123 53.9196 131.063 53.5996 131.063C53.2396 131.063 52.9196 131.133 52.6196 131.283C52.3196 131.423 52.0596 131.623 51.8496 131.873C51.6396 132.123 51.4696 132.413 51.3496 132.733C51.2296 133.063 51.1696 133.403 51.1696 133.763C51.1696 134.123 51.2296 134.483 51.3496 134.813C51.4696 135.143 51.6296 135.423 51.8496 135.653C52.0596 135.893 52.3196 136.083 52.6196 136.213C52.9196 136.353 53.2496 136.423 53.5996 136.423C53.9196 136.423 54.2196 136.363 54.5096 136.253C54.7896 136.143 55.0596 135.993 55.3196 135.823L55.3096 135.833Z" fill="white"/>
<path d="M58.1996 133.773C58.1996 133.253 58.2696 132.753 58.3996 132.273C58.5296 131.793 58.7196 131.343 58.9596 130.933C59.1996 130.523 59.4896 130.153 59.8196 129.813C60.1596 129.473 60.5296 129.193 60.9396 128.953C61.3496 128.713 61.7996 128.533 62.2796 128.403C62.7596 128.273 63.2596 128.203 63.7796 128.203C64.5496 128.203 65.2696 128.343 65.9496 128.633C66.6296 128.923 67.2096 129.313 67.7096 129.813C68.2096 130.313 68.6096 130.903 68.8996 131.573C69.1896 132.243 69.3396 132.983 69.3396 133.763C69.3396 134.283 69.2696 134.783 69.1396 135.263C69.0096 135.743 68.8196 136.183 68.5796 136.603C68.3396 137.023 68.0496 137.393 67.7196 137.723C67.3896 138.053 67.0096 138.343 66.5996 138.583C66.1896 138.823 65.7496 139.013 65.2696 139.143C64.7896 139.273 64.2996 139.333 63.7896 139.333C63.2796 139.333 62.7696 139.263 62.2896 139.143C61.8096 139.023 61.3696 138.823 60.9496 138.583C60.5396 138.343 60.1596 138.053 59.8296 137.723C59.4996 137.393 59.2096 137.013 58.9696 136.603C58.7296 136.193 58.5396 135.743 58.4096 135.263C58.2796 134.783 58.2096 134.283 58.2096 133.763L58.1996 133.773ZM61.2896 133.773C61.2896 134.143 61.3496 134.493 61.4596 134.823C61.5696 135.153 61.7396 135.433 61.9496 135.663C62.1596 135.903 62.4196 136.093 62.7196 136.223C63.0196 136.363 63.3596 136.433 63.7396 136.433C64.1196 136.433 64.4396 136.363 64.7396 136.223C65.0396 136.083 65.2896 135.893 65.4896 135.663C65.6996 135.423 65.8496 135.143 65.9596 134.823C66.0696 134.503 66.1296 134.153 66.1296 133.773C66.1296 133.393 66.0696 133.063 65.9596 132.743C65.8496 132.413 65.6896 132.123 65.4896 131.883C65.2796 131.633 65.0296 131.443 64.7396 131.293C64.4396 131.153 64.1096 131.073 63.7396 131.073C63.3696 131.073 63.0196 131.143 62.7196 131.293C62.4196 131.433 62.1596 131.633 61.9496 131.883C61.7396 132.133 61.5696 132.423 61.4596 132.743C61.3396 133.073 61.2896 133.413 61.2896 133.773Z" fill="white"/>
<path d="M81.0195 139.013C80.9495 139.073 80.8695 139.113 80.7895 139.133C80.7095 139.153 80.6295 139.163 80.5595 139.163H79.2795C79.1795 139.163 79.0895 139.143 79.0195 139.103C78.9495 139.063 78.8795 139.013 78.8295 138.953C78.7795 138.893 78.7395 138.823 78.6995 138.743C78.6595 138.663 78.6395 138.583 78.6195 138.493L78.3595 137.413C78.2795 137.583 78.1495 137.783 77.9895 138.013C77.8295 138.233 77.6195 138.443 77.3795 138.643C77.1295 138.833 76.8295 139.003 76.4895 139.133C76.1495 139.263 75.7495 139.333 75.2995 139.333C74.6595 139.333 74.0695 139.213 73.5395 138.963C73.0095 138.713 72.5695 138.373 72.1995 137.943C71.8295 137.513 71.5395 137.013 71.3395 136.433C71.1395 135.863 71.0295 135.243 71.0295 134.593V129.043C71.0295 128.833 71.0795 128.663 71.1695 128.553C71.2595 128.443 71.4095 128.383 71.6195 128.383H73.5795C73.8195 128.383 73.9895 128.423 74.0795 128.503C74.1695 128.583 74.2195 128.743 74.2195 128.983V134.513C74.2195 134.753 74.2795 134.983 74.3895 135.203C74.4995 135.423 74.6495 135.613 74.8295 135.783C75.0095 135.953 75.2195 136.083 75.4395 136.173C75.6695 136.273 75.8995 136.313 76.1395 136.313C76.3395 136.313 76.5495 136.263 76.7695 136.173C76.9895 136.073 77.1895 135.953 77.3695 135.783C77.5495 135.623 77.6995 135.433 77.8195 135.213C77.9395 134.993 77.9995 134.763 77.9995 134.523V129.003C77.9995 128.903 78.0195 128.813 78.0595 128.713C78.0995 128.613 78.1495 128.543 78.2295 128.493C78.2995 128.443 78.3695 128.413 78.4395 128.403C78.5095 128.383 78.5795 128.373 78.6595 128.373H80.5795C80.8195 128.373 80.9995 128.433 81.1095 128.553C81.2195 128.673 81.2695 128.833 81.2695 129.023V138.513C81.2695 138.623 81.2495 138.723 81.1995 138.813C81.1495 138.903 81.0895 138.973 80.9995 139.023L81.0495 138.993L81.0195 139.013Z" fill="white"/>
<path d="M83.2697 129.013C83.2697 128.913 83.2897 128.823 83.3297 128.733C83.3697 128.643 83.4197 128.573 83.4897 128.523C83.6397 128.423 83.7897 128.383 83.9497 128.383H85.2297C85.3397 128.383 85.4197 128.403 85.4797 128.443C85.5397 128.483 85.5897 128.533 85.6397 128.593C85.6797 128.653 85.7197 128.723 85.7497 128.803C85.7797 128.883 85.8197 128.963 85.8597 129.043C85.8697 129.063 85.8897 129.123 85.9297 129.213C85.9597 129.303 85.9997 129.393 86.0397 129.503C86.0797 129.603 86.1197 129.703 86.1497 129.803C86.1897 129.893 86.2097 129.953 86.2197 129.983C86.3897 129.793 86.5497 129.603 86.7097 129.393C86.8697 129.183 87.0297 128.993 87.2097 128.823C87.3897 128.643 87.5797 128.503 87.7997 128.393C88.0097 128.283 88.2697 128.223 88.5597 128.223C88.8497 128.223 89.1397 128.243 89.3797 128.293C89.6197 128.343 89.8497 128.403 90.0597 128.493C90.2697 128.583 90.4897 128.693 90.6997 128.823C90.9097 128.953 91.1397 129.113 91.3897 129.293C91.7797 129.503 91.8497 129.813 91.6097 130.223L90.8397 131.533C90.7297 131.703 90.5897 131.803 90.4197 131.843C90.2597 131.883 90.0797 131.853 89.8897 131.763C89.6497 131.523 89.3997 131.353 89.1497 131.233C88.8997 131.113 88.6097 131.063 88.2897 131.063C88.0697 131.063 87.8797 131.093 87.7097 131.153C87.5397 131.213 87.3897 131.303 87.2597 131.413C87.1197 131.523 86.9997 131.663 86.8797 131.823C86.7597 131.983 86.6397 132.153 86.5197 132.353V138.493C86.5197 138.713 86.4697 138.873 86.3597 138.983C86.2497 139.093 86.0797 139.153 85.8397 139.153H83.9297C83.4897 139.153 83.2697 138.933 83.2697 138.503V129.013Z" fill="white"/>
<path d="M94.1896 135.803C94.3396 135.953 94.5096 136.083 94.6896 136.193C94.8696 136.303 95.0396 136.383 95.1996 136.443C95.3596 136.513 95.5096 136.553 95.6296 136.583C95.7496 136.613 95.8396 136.623 95.8796 136.623C95.9896 136.623 96.1196 136.623 96.2896 136.613C96.4596 136.613 96.6196 136.583 96.7696 136.533C96.9196 136.493 97.0496 136.423 97.1596 136.323C97.2696 136.223 97.3296 136.093 97.3296 135.913C97.3296 135.753 97.2996 135.633 97.2396 135.533C97.1796 135.443 97.0896 135.363 96.9696 135.293C96.8496 135.223 96.7096 135.173 96.5296 135.123C96.3496 135.073 96.1596 135.013 95.9496 134.943C95.2696 134.763 94.7096 134.543 94.2696 134.293C93.8296 134.043 93.4796 133.753 93.2196 133.443C92.9596 133.133 92.7796 132.793 92.6796 132.433C92.5796 132.073 92.5296 131.693 92.5296 131.293C92.5296 130.823 92.6196 130.393 92.8096 130.013C92.9996 129.633 93.2596 129.303 93.6096 129.023C93.9596 128.743 94.3696 128.533 94.8496 128.383C95.3296 128.233 95.8596 128.163 96.4496 128.163C96.8096 128.163 97.1396 128.193 97.4496 128.253C97.7596 128.313 98.0596 128.403 98.3396 128.533C98.6196 128.663 98.8996 128.823 99.1696 129.023C99.4396 129.223 99.7096 129.463 99.9696 129.743C100.07 129.853 100.12 129.963 100.12 130.063C100.12 130.163 100.06 130.263 99.9296 130.383C99.7096 130.563 99.4996 130.743 99.2996 130.913C99.0996 131.093 98.8896 131.283 98.6796 131.493C98.6096 131.553 98.5396 131.583 98.4796 131.603C98.4096 131.613 98.3496 131.613 98.2796 131.603C98.2196 131.583 98.1596 131.553 98.0996 131.523C98.0396 131.483 97.9896 131.433 97.9496 131.383C97.7496 131.163 97.5296 131.013 97.2696 130.933C97.0196 130.853 96.7796 130.823 96.5596 130.823C96.2796 130.823 96.0596 130.873 95.8996 130.963C95.7396 131.053 95.6596 131.203 95.6696 131.403C95.6796 131.553 95.7396 131.663 95.8396 131.743C95.9396 131.823 96.0596 131.893 96.1996 131.943C96.3396 131.993 96.4996 132.033 96.6596 132.063C96.8196 132.093 96.9696 132.133 97.1096 132.173C97.6196 132.333 98.0796 132.513 98.5096 132.703C98.9396 132.893 99.2996 133.133 99.6096 133.413C99.9196 133.693 100.16 134.023 100.34 134.413C100.51 134.803 100.6 135.273 100.6 135.833C100.6 136.393 100.49 136.893 100.27 137.333C100.05 137.773 99.7396 138.143 99.3496 138.443C98.9596 138.743 98.4996 138.973 97.9596 139.133C97.4296 139.293 96.8496 139.373 96.2296 139.373C95.8796 139.373 95.5196 139.343 95.1596 139.283C94.7996 139.223 94.4496 139.123 94.1096 138.983C93.7696 138.843 93.4496 138.663 93.1396 138.453C92.8296 138.233 92.5596 137.973 92.3296 137.663C92.2696 137.583 92.2196 137.503 92.1896 137.413C92.1596 137.323 92.1396 137.243 92.1496 137.153C92.1596 137.063 92.1696 136.993 92.1996 136.923C92.2296 136.853 92.2796 136.793 92.3496 136.743L93.4396 135.653C93.5796 135.543 93.6996 135.503 93.7996 135.533C93.8996 135.563 94.0396 135.663 94.1996 135.823L94.1896 135.803Z" fill="white"/>
<path d="M111.42 137.863C110.92 138.323 110.36 138.683 109.74 138.933C109.12 139.183 108.46 139.323 107.76 139.323C106.99 139.323 106.25 139.183 105.56 138.903C104.87 138.623 104.27 138.233 103.75 137.733C103.23 137.233 102.82 136.643 102.51 135.963C102.2 135.283 102.05 134.543 102.05 133.753C102.05 133.253 102.11 132.773 102.23 132.303C102.35 131.833 102.52 131.403 102.75 130.993C102.98 130.583 103.24 130.213 103.56 129.873C103.88 129.533 104.24 129.243 104.63 128.993C105.03 128.753 105.46 128.563 105.92 128.423C106.38 128.283 106.87 128.223 107.39 128.223C107.86 128.223 108.31 128.283 108.76 128.413C109.2 128.533 109.61 128.713 110 128.943C110.39 129.173 110.74 129.443 111.06 129.753C111.38 130.063 111.66 130.413 111.89 130.793C112.12 131.173 112.3 131.573 112.43 131.993C112.56 132.423 112.62 132.863 112.62 133.313C112.62 133.603 112.62 133.843 112.61 134.033C112.61 134.223 112.56 134.363 112.48 134.473C112.4 134.583 112.27 134.663 112.09 134.703C111.91 134.743 111.64 134.763 111.28 134.763H105.18C105.24 135.123 105.35 135.423 105.52 135.673C105.69 135.913 105.89 136.113 106.12 136.253C106.35 136.393 106.59 136.503 106.84 136.563C107.09 136.623 107.33 136.653 107.56 136.653C107.76 136.653 107.97 136.633 108.19 136.593C108.4 136.553 108.61 136.493 108.81 136.423C109.01 136.353 109.19 136.273 109.36 136.173C109.53 136.073 109.66 135.983 109.76 135.883C109.85 135.813 109.93 135.753 109.99 135.713C110.06 135.673 110.12 135.653 110.2 135.653C110.28 135.653 110.35 135.683 110.42 135.733C110.5 135.783 110.58 135.853 110.68 135.953L111.58 136.973C111.64 137.043 111.68 137.113 111.7 137.173C111.72 137.233 111.73 137.293 111.73 137.353C111.73 137.463 111.7 137.563 111.64 137.643C111.58 137.723 111.5 137.793 111.42 137.863ZM107.34 130.803C107.12 130.803 106.91 130.843 106.7 130.933C106.49 131.023 106.3 131.133 106.12 131.283C105.94 131.433 105.78 131.593 105.63 131.783C105.49 131.973 105.37 132.163 105.28 132.353H109.61C109.49 132.133 109.36 131.933 109.22 131.743C109.08 131.553 108.92 131.393 108.75 131.253C108.57 131.113 108.37 131.003 108.14 130.923C107.91 130.843 107.64 130.803 107.34 130.803Z" fill="white"/>
<path d="M121.33 135.803C121.48 135.953 121.65 136.083 121.83 136.193C122.01 136.303 122.18 136.383 122.34 136.443C122.5 136.513 122.65 136.553 122.77 136.583C122.89 136.613 122.98 136.623 123.02 136.623C123.13 136.623 123.26 136.623 123.43 136.613C123.6 136.613 123.76 136.583 123.91 136.533C124.06 136.493 124.19 136.423 124.3 136.323C124.41 136.223 124.47 136.093 124.47 135.913C124.47 135.753 124.44 135.633 124.38 135.533C124.32 135.443 124.23 135.363 124.11 135.293C123.99 135.223 123.85 135.173 123.67 135.123C123.49 135.073 123.3 135.013 123.09 134.943C122.41 134.763 121.85 134.543 121.41 134.293C120.97 134.043 120.62 133.753 120.36 133.443C120.1 133.133 119.92 132.793 119.82 132.433C119.72 132.073 119.67 131.693 119.67 131.293C119.67 130.823 119.76 130.393 119.95 130.013C120.14 129.633 120.4 129.303 120.75 129.023C121.1 128.743 121.51 128.533 121.99 128.383C122.47 128.233 123 128.163 123.59 128.163C123.95 128.163 124.28 128.193 124.59 128.253C124.9 128.313 125.2 128.403 125.48 128.533C125.76 128.663 126.04 128.823 126.31 129.023C126.58 129.223 126.85 129.463 127.11 129.743C127.21 129.853 127.26 129.963 127.26 130.063C127.26 130.163 127.2 130.263 127.07 130.383C126.85 130.563 126.64 130.743 126.44 130.913C126.24 131.093 126.03 131.283 125.82 131.493C125.75 131.553 125.68 131.583 125.62 131.603C125.55 131.613 125.49 131.613 125.42 131.603C125.36 131.583 125.3 131.553 125.24 131.523C125.18 131.483 125.13 131.433 125.09 131.383C124.89 131.163 124.67 131.013 124.41 130.933C124.16 130.853 123.92 130.823 123.7 130.823C123.42 130.823 123.2 130.873 123.04 130.963C122.88 131.053 122.8 131.203 122.81 131.403C122.82 131.553 122.88 131.663 122.98 131.743C123.08 131.823 123.2 131.893 123.34 131.943C123.48 131.993 123.64 132.033 123.8 132.063C123.96 132.093 124.11 132.133 124.25 132.173C124.76 132.333 125.22 132.513 125.65 132.703C126.08 132.893 126.44 133.133 126.75 133.413C127.06 133.693 127.3 134.023 127.48 134.413C127.65 134.803 127.74 135.273 127.74 135.833C127.74 136.393 127.63 136.893 127.41 137.333C127.19 137.773 126.88 138.143 126.49 138.443C126.1 138.743 125.64 138.973 125.1 139.133C124.57 139.293 123.99 139.373 123.37 139.373C123.02 139.373 122.66 139.343 122.3 139.283C121.94 139.223 121.59 139.123 121.25 138.983C120.91 138.843 120.59 138.663 120.28 138.453C119.97 138.233 119.7 137.973 119.47 137.663C119.41 137.583 119.36 137.503 119.33 137.413C119.3 137.323 119.28 137.243 119.29 137.153C119.3 137.063 119.31 136.993 119.34 136.923C119.37 136.853 119.42 136.793 119.49 136.743L120.58 135.653C120.72 135.543 120.84 135.503 120.94 135.533C121.04 135.563 121.18 135.663 121.34 135.823L121.33 135.803Z" fill="white"/>
<path d="M130.19 126.703C130.19 126.523 130.25 126.393 130.36 126.313C130.48 126.223 130.64 126.143 130.86 126.063L132.78 125.393C132.78 125.393 132.83 125.393 132.86 125.393H132.93C133.14 125.393 133.28 125.453 133.35 125.573C133.42 125.693 133.46 125.853 133.46 126.053V128.723H134.87C135.05 128.723 135.2 128.773 135.31 128.883C135.42 128.993 135.48 129.153 135.48 129.363V131.003C135.48 131.243 135.42 131.413 135.31 131.523C135.2 131.633 135.05 131.693 134.87 131.693H133.45V138.513C133.45 138.733 133.4 138.893 133.27 139.003C133.14 139.113 132.97 139.173 132.75 139.173H130.83C130.39 139.173 130.18 138.953 130.18 138.523V131.703H129.55C129.11 131.703 128.9 131.473 128.9 131.013V129.373C128.9 128.943 129.12 128.733 129.55 128.733H130.17V126.723L130.19 126.703Z" fill="white"/>
<path d="M147.64 138.523C147.64 138.623 147.62 138.713 147.59 138.803C147.56 138.893 147.5 138.963 147.42 139.013C147.36 139.073 147.28 139.113 147.2 139.133C147.12 139.153 147.04 139.163 146.98 139.163H145.31C145.19 139.163 145.09 139.143 145.02 139.113C144.95 139.083 144.89 139.043 144.84 138.983C144.79 138.923 144.76 138.853 144.73 138.773C144.7 138.693 144.67 138.603 144.63 138.503L144.38 137.863C144.23 138.013 144.06 138.183 143.88 138.353C143.7 138.523 143.5 138.683 143.28 138.833C143.06 138.983 142.83 139.103 142.57 139.203C142.31 139.303 142.04 139.353 141.76 139.353C141.25 139.353 140.75 139.283 140.28 139.163C139.81 139.043 139.37 138.843 138.96 138.603C138.55 138.363 138.18 138.073 137.85 137.743C137.52 137.403 137.23 137.033 136.99 136.623C136.75 136.213 136.56 135.763 136.43 135.283C136.3 134.803 136.24 134.303 136.24 133.783C136.24 132.993 136.38 132.263 136.67 131.593C136.96 130.913 137.35 130.333 137.85 129.833C138.35 129.333 138.93 128.943 139.61 128.653C140.28 128.363 141 128.223 141.77 128.223C142.12 128.223 142.44 128.273 142.74 128.383C143.03 128.483 143.3 128.623 143.54 128.793C143.78 128.963 144 129.153 144.19 129.373C144.38 129.593 144.56 129.803 144.71 130.023L145.04 128.993C145.1 128.853 145.14 128.733 145.18 128.653C145.22 128.563 145.26 128.503 145.3 128.463C145.34 128.423 145.39 128.393 145.46 128.383C145.53 128.373 145.61 128.363 145.72 128.363H146.98C147.04 128.363 147.12 128.363 147.2 128.393C147.28 128.413 147.36 128.453 147.42 128.513C147.5 128.573 147.56 128.643 147.59 128.723C147.62 128.803 147.64 128.893 147.64 128.993V138.553V138.523ZM139.29 133.773C139.29 134.143 139.35 134.493 139.46 134.823C139.58 135.153 139.74 135.433 139.96 135.663C140.17 135.903 140.43 136.093 140.74 136.223C141.04 136.363 141.38 136.433 141.74 136.433C142.1 136.433 142.47 136.363 142.8 136.223C143.13 136.083 143.41 135.893 143.65 135.663C143.89 135.423 144.08 135.143 144.21 134.823C144.35 134.493 144.41 134.153 144.41 133.773C144.41 133.393 144.34 133.063 144.21 132.743C144.07 132.413 143.89 132.123 143.65 131.883C143.41 131.633 143.13 131.443 142.8 131.293C142.47 131.153 142.12 131.073 141.74 131.073C141.36 131.073 141.04 131.143 140.74 131.293C140.44 131.433 140.18 131.633 139.96 131.883C139.74 132.133 139.58 132.423 139.46 132.743C139.34 133.073 139.29 133.413 139.29 133.773Z" fill="white"/>
<path d="M150.33 126.703C150.33 126.523 150.39 126.393 150.5 126.313C150.62 126.223 150.78 126.143 151 126.063L152.92 125.393C152.92 125.393 152.97 125.393 153 125.393H153.07C153.28 125.393 153.42 125.453 153.49 125.573C153.56 125.693 153.6 125.853 153.6 126.053V128.723H155.01C155.19 128.723 155.34 128.773 155.45 128.883C155.56 128.993 155.62 129.153 155.62 129.363V131.003C155.62 131.243 155.56 131.413 155.45 131.523C155.34 131.633 155.19 131.693 155.01 131.693H153.59V138.513C153.59 138.733 153.54 138.893 153.41 139.003C153.28 139.113 153.11 139.173 152.89 139.173H150.97C150.53 139.173 150.32 138.953 150.32 138.523V131.703H149.69C149.25 131.703 149.04 131.473 149.04 131.013V129.373C149.04 128.943 149.26 128.733 149.69 128.733H150.31V126.723L150.33 126.703Z" fill="white"/>
<path d="M166.95 139.013C166.88 139.073 166.8 139.113 166.72 139.133C166.64 139.153 166.56 139.163 166.49 139.163H165.21C165.11 139.163 165.02 139.143 164.95 139.103C164.88 139.063 164.81 139.013 164.76 138.953C164.71 138.893 164.67 138.823 164.63 138.743C164.59 138.663 164.57 138.583 164.55 138.493L164.29 137.413C164.21 137.583 164.08 137.783 163.92 138.013C163.76 138.233 163.55 138.443 163.31 138.643C163.06 138.833 162.76 139.003 162.42 139.133C162.08 139.263 161.68 139.333 161.23 139.333C160.59 139.333 160 139.213 159.47 138.963C158.94 138.713 158.5 138.373 158.13 137.943C157.76 137.513 157.47 137.013 157.27 136.433C157.07 135.863 156.96 135.243 156.96 134.593V129.043C156.96 128.833 157.01 128.663 157.1 128.553C157.19 128.443 157.34 128.383 157.55 128.383H159.51C159.75 128.383 159.92 128.423 160.01 128.503C160.1 128.583 160.15 128.743 160.15 128.983V134.513C160.15 134.753 160.21 134.983 160.32 135.203C160.43 135.423 160.58 135.613 160.76 135.783C160.94 135.953 161.15 136.083 161.37 136.173C161.6 136.273 161.83 136.313 162.07 136.313C162.27 136.313 162.48 136.263 162.7 136.173C162.92 136.073 163.12 135.953 163.3 135.783C163.48 135.623 163.63 135.433 163.75 135.213C163.87 134.993 163.93 134.763 163.93 134.523V129.003C163.93 128.903 163.95 128.813 163.99 128.713C164.03 128.613 164.08 128.543 164.16 128.493C164.23 128.443 164.3 128.413 164.37 128.403C164.44 128.383 164.51 128.373 164.59 128.373H166.51C166.75 128.373 166.93 128.433 167.04 128.553C167.15 128.673 167.2 128.833 167.2 129.023V138.513C167.2 138.623 167.18 138.723 167.13 138.813C167.08 138.903 167.02 138.973 166.93 139.023L166.98 138.993L166.95 139.013Z" fill="white"/>
<path d="M170.82 135.803C170.97 135.953 171.14 136.083 171.32 136.193C171.5 136.303 171.67 136.383 171.83 136.443C171.99 136.513 172.14 136.553 172.26 136.583C172.38 136.613 172.47 136.623 172.51 136.623C172.62 136.623 172.75 136.623 172.92 136.613C173.09 136.613 173.25 136.583 173.4 136.533C173.55 136.493 173.68 136.423 173.79 136.323C173.9 136.223 173.96 136.093 173.96 135.913C173.96 135.753 173.93 135.633 173.87 135.533C173.81 135.443 173.72 135.363 173.6 135.293C173.48 135.223 173.34 135.173 173.16 135.123C172.98 135.073 172.79 135.013 172.58 134.943C171.9 134.763 171.34 134.543 170.9 134.293C170.46 134.043 170.11 133.753 169.85 133.443C169.59 133.133 169.41 132.793 169.31 132.433C169.21 132.073 169.16 131.693 169.16 131.293C169.16 130.823 169.25 130.393 169.44 130.013C169.63 129.633 169.89 129.303 170.24 129.023C170.59 128.743 171 128.533 171.48 128.383C171.96 128.233 172.49 128.163 173.08 128.163C173.44 128.163 173.77 128.193 174.08 128.253C174.39 128.313 174.69 128.403 174.97 128.533C175.25 128.663 175.53 128.823 175.8 129.023C176.07 129.223 176.34 129.463 176.6 129.743C176.7 129.853 176.75 129.963 176.75 130.063C176.75 130.163 176.69 130.263 176.56 130.383C176.34 130.563 176.13 130.743 175.93 130.913C175.73 131.093 175.52 131.283 175.31 131.493C175.24 131.553 175.17 131.583 175.11 131.603C175.04 131.613 174.98 131.613 174.91 131.603C174.85 131.583 174.79 131.553 174.73 131.523C174.67 131.483 174.62 131.433 174.58 131.383C174.38 131.163 174.16 131.013 173.9 130.933C173.65 130.853 173.41 130.823 173.19 130.823C172.91 130.823 172.69 130.873 172.53 130.963C172.37 131.053 172.29 131.203 172.3 131.403C172.31 131.553 172.37 131.663 172.47 131.743C172.57 131.823 172.69 131.893 172.83 131.943C172.97 131.993 173.13 132.033 173.29 132.063C173.45 132.093 173.6 132.133 173.74 132.173C174.25 132.333 174.71 132.513 175.14 132.703C175.57 132.893 175.93 133.133 176.24 133.413C176.55 133.693 176.79 134.023 176.97 134.413C177.14 134.803 177.23 135.273 177.23 135.833C177.23 136.393 177.12 136.893 176.9 137.333C176.68 137.773 176.37 138.143 175.98 138.443C175.59 138.743 175.13 138.973 174.59 139.133C174.06 139.293 173.48 139.373 172.86 139.373C172.51 139.373 172.15 139.343 171.79 139.283C171.43 139.223 171.08 139.123 170.74 138.983C170.4 138.843 170.08 138.663 169.77 138.453C169.46 138.233 169.19 137.973 168.96 137.663C168.9 137.583 168.85 137.503 168.82 137.413C168.79 137.323 168.77 137.243 168.78 137.153C168.79 137.063 168.8 136.993 168.83 136.923C168.86 136.853 168.91 136.793 168.98 136.743L170.07 135.653C170.21 135.543 170.33 135.503 170.43 135.533C170.53 135.563 170.67 135.663 170.83 135.823L170.82 135.803Z" fill="white"/>
<path d="M194.37 133.053C194.37 133.053 194.42 133.053 194.47 133.053C194.63 133.053 194.79 133.003 194.93 132.913C195.07 132.823 195.18 132.693 195.24 132.533C195.29 132.503 195.32 132.453 195.34 132.403C195.36 132.353 195.37 132.303 195.37 132.253C195.4 132.153 195.44 132.073 195.49 132.013C195.54 131.953 195.61 131.923 195.69 131.923C195.73 131.923 195.75 131.923 195.77 131.923L197.66 132.293C197.74 132.293 197.81 132.343 197.88 132.433C197.95 132.523 197.98 132.613 197.98 132.693C197.98 132.743 197.98 132.773 197.98 132.783C197.91 133.223 197.77 133.623 197.56 133.983C197.36 134.343 197.11 134.653 196.81 134.903C196.52 135.153 196.19 135.353 195.82 135.493C195.45 135.633 195.07 135.703 194.68 135.703C194.5 135.703 194.32 135.683 194.13 135.653L193.57 135.553C193.53 136.083 193.44 136.543 193.29 136.933C193.14 137.323 192.95 137.653 192.71 137.933C192.48 138.213 192.21 138.433 191.9 138.603C191.59 138.773 191.28 138.913 190.93 139.003C190.59 139.103 190.23 139.163 189.87 139.203C189.5 139.243 189.14 139.263 188.78 139.263C188.17 139.263 187.59 139.163 187.04 138.963C186.49 138.763 186.01 138.493 185.59 138.133C185.17 137.773 184.85 137.353 184.6 136.863C184.36 136.373 184.24 135.843 184.24 135.253C184.24 134.833 184.28 134.453 184.36 134.133C184.44 133.803 184.56 133.513 184.71 133.263C184.86 133.003 185.04 132.773 185.26 132.573C185.47 132.373 185.71 132.173 185.97 131.993C185.71 131.723 185.5 131.403 185.33 131.023C185.16 130.643 185.08 130.243 185.08 129.803C185.08 129.313 185.18 128.863 185.38 128.443C185.58 128.023 185.85 127.663 186.18 127.353C186.51 127.043 186.9 126.803 187.33 126.633C187.77 126.453 188.22 126.373 188.69 126.373C189.16 126.373 189.61 126.433 190.05 126.563C190.49 126.683 190.87 126.893 191.2 127.163C191.53 127.433 191.8 127.803 192 128.243C192.2 128.683 192.3 129.233 192.3 129.873C192.3 130.003 192.26 130.103 192.19 130.173C192.11 130.243 192.02 130.273 191.92 130.273C191.63 130.273 191.34 130.273 191.05 130.273C190.76 130.273 190.47 130.273 190.18 130.273C189.94 130.273 189.81 130.163 189.81 129.953C189.81 129.813 189.79 129.683 189.76 129.563C189.73 129.443 189.68 129.343 189.6 129.263C189.53 129.183 189.43 129.113 189.31 129.063C189.19 129.013 189.04 128.993 188.86 128.993C188.66 128.993 188.49 129.033 188.36 129.103C188.23 129.173 188.13 129.263 188.06 129.363C187.99 129.463 187.94 129.583 187.92 129.703C187.89 129.823 187.88 129.933 187.88 130.033C187.88 130.093 187.9 130.173 187.93 130.293C187.96 130.413 188.01 130.533 188.08 130.663C188.15 130.793 188.25 130.903 188.36 131.013C188.47 131.123 188.63 131.193 188.8 131.223C189 131.253 189.1 131.373 189.1 131.563C189.1 131.613 189.1 131.643 189.1 131.653L188.77 133.243C188.76 133.353 188.72 133.423 188.66 133.463C188.59 133.503 188.53 133.523 188.45 133.523C188.4 133.523 188.36 133.523 188.32 133.523C188.28 133.523 188.24 133.523 188.2 133.523C188.02 133.523 187.87 133.573 187.76 133.663C187.64 133.763 187.55 133.873 187.48 134.003C187.41 134.133 187.37 134.263 187.34 134.403C187.31 134.543 187.3 134.653 187.3 134.743C187.3 134.913 187.32 135.093 187.37 135.303C187.42 135.513 187.5 135.693 187.63 135.863C187.75 136.033 187.93 136.183 188.14 136.293C188.35 136.403 188.63 136.463 188.97 136.463C189.19 136.463 189.4 136.433 189.61 136.363C189.81 136.303 189.99 136.203 190.15 136.073C190.31 135.943 190.44 135.793 190.54 135.603C190.64 135.413 190.69 135.203 190.71 134.953L190.21 134.853C190.13 134.833 190.07 134.793 190.02 134.733C189.97 134.673 189.95 134.593 189.95 134.513C189.95 134.463 189.95 134.443 189.95 134.433C190.01 134.123 190.07 133.813 190.13 133.513C190.19 133.203 190.25 132.893 190.32 132.573C190.34 132.483 190.38 132.413 190.43 132.363C190.48 132.313 190.56 132.283 190.64 132.283C190.68 132.283 190.71 132.283 190.72 132.283L194.4 132.993L194.37 133.053Z" fill="white"/>
<path d="M211.77 135.833C211.85 135.773 211.92 135.743 211.99 135.723C212.06 135.713 212.12 135.703 212.16 135.703C212.26 135.703 212.34 135.723 212.42 135.763C212.5 135.803 212.58 135.883 212.67 136.013L213.62 137.443C213.62 137.443 213.68 137.543 213.7 137.593C213.73 137.653 213.74 137.693 213.74 137.733C213.74 137.863 213.7 137.973 213.62 138.053C213.54 138.133 213.45 138.203 213.35 138.273C212.89 138.593 212.38 138.853 211.83 139.053C211.28 139.243 210.7 139.343 210.08 139.343C209.57 139.343 209.08 139.273 208.61 139.153C208.14 139.033 207.7 138.833 207.29 138.593C206.88 138.353 206.51 138.063 206.17 137.733C205.83 137.393 205.54 137.023 205.31 136.613C205.07 136.203 204.89 135.753 204.75 135.273C204.62 134.793 204.55 134.293 204.55 133.773C204.55 133.253 204.62 132.753 204.75 132.273C204.88 131.793 205.07 131.343 205.31 130.933C205.55 130.523 205.84 130.153 206.17 129.813C206.51 129.473 206.88 129.193 207.29 128.953C207.7 128.713 208.14 128.533 208.61 128.403C209.08 128.273 209.57 128.203 210.08 128.203C210.7 128.203 211.27 128.283 211.79 128.453C212.31 128.623 212.8 128.863 213.26 129.183L213.23 129.153C213.35 129.223 213.45 129.313 213.53 129.413C213.6 129.513 213.64 129.633 213.64 129.783C213.64 129.883 213.61 129.993 213.54 130.093L212.79 131.373C212.63 131.653 212.44 131.793 212.21 131.793C212.16 131.793 212.1 131.783 212.02 131.753C211.95 131.723 211.86 131.683 211.77 131.623C211.52 131.463 211.25 131.323 210.97 131.223C210.68 131.123 210.38 131.063 210.06 131.063C209.7 131.063 209.38 131.133 209.08 131.283C208.78 131.423 208.52 131.623 208.31 131.873C208.1 132.123 207.93 132.413 207.81 132.733C207.69 133.063 207.63 133.403 207.63 133.763C207.63 134.123 207.69 134.483 207.81 134.813C207.93 135.143 208.09 135.423 208.31 135.653C208.52 135.893 208.78 136.083 209.08 136.213C209.38 136.353 209.71 136.423 210.06 136.423C210.38 136.423 210.68 136.363 210.97 136.253C211.25 136.143 211.52 135.993 211.78 135.823L211.77 135.833Z" fill="white"/>
<path d="M214.66 133.773C214.66 133.253 214.73 132.753 214.86 132.273C214.99 131.793 215.18 131.343 215.42 130.933C215.66 130.523 215.95 130.153 216.28 129.813C216.62 129.473 216.99 129.193 217.4 128.953C217.81 128.713 218.26 128.533 218.74 128.403C219.22 128.273 219.72 128.203 220.24 128.203C221.01 128.203 221.73 128.343 222.41 128.633C223.09 128.923 223.67 129.313 224.17 129.813C224.67 130.313 225.07 130.903 225.36 131.573C225.65 132.243 225.8 132.983 225.8 133.763C225.8 134.283 225.73 134.783 225.6 135.263C225.47 135.743 225.28 136.183 225.04 136.603C224.8 137.023 224.51 137.393 224.18 137.723C223.85 138.053 223.47 138.343 223.06 138.583C222.65 138.823 222.21 139.013 221.73 139.143C221.25 139.273 220.76 139.333 220.25 139.333C219.74 139.333 219.23 139.263 218.75 139.143C218.27 139.023 217.83 138.823 217.41 138.583C217 138.343 216.62 138.053 216.29 137.723C215.96 137.393 215.67 137.013 215.43 136.603C215.19 136.193 215 135.743 214.87 135.263C214.74 134.783 214.67 134.283 214.67 133.763L214.66 133.773ZM217.76 133.773C217.76 134.143 217.82 134.493 217.93 134.823C218.04 135.153 218.21 135.433 218.42 135.663C218.63 135.903 218.89 136.093 219.19 136.223C219.49 136.363 219.83 136.433 220.21 136.433C220.59 136.433 220.91 136.363 221.21 136.223C221.51 136.083 221.76 135.893 221.96 135.663C222.17 135.423 222.32 135.143 222.43 134.823C222.54 134.503 222.6 134.153 222.6 133.773C222.6 133.393 222.54 133.063 222.43 132.743C222.32 132.413 222.16 132.123 221.96 131.883C221.75 131.633 221.5 131.443 221.21 131.293C220.91 131.153 220.58 131.073 220.21 131.073C219.84 131.073 219.49 131.143 219.19 131.293C218.89 131.433 218.63 131.633 218.42 131.883C218.21 132.133 218.04 132.423 217.93 132.743C217.81 133.073 217.76 133.413 217.76 133.773Z" fill="white"/>
<path d="M227.7 128.533C227.77 128.473 227.85 128.433 227.93 128.413C228.01 128.393 228.09 128.383 228.16 128.383H229.44C229.54 128.383 229.63 128.403 229.7 128.443C229.77 128.483 229.84 128.533 229.89 128.593C229.94 128.653 229.98 128.723 230.01 128.803C230.04 128.883 230.07 128.963 230.1 129.053L230.36 130.133C230.44 129.963 230.55 129.763 230.67 129.533C230.79 129.303 230.95 129.103 231.15 128.903C231.35 128.703 231.6 128.543 231.9 128.413C232.2 128.283 232.58 128.213 233.03 128.213C233.75 128.213 234.39 128.363 234.93 128.673C235.47 128.983 235.92 129.393 236.27 129.913C236.38 129.743 236.52 129.553 236.71 129.353C236.9 129.153 237.12 128.973 237.38 128.803C237.64 128.633 237.94 128.493 238.27 128.383C238.61 128.273 238.98 128.223 239.38 128.223C240.02 128.223 240.6 128.343 241.11 128.593C241.62 128.843 242.05 129.183 242.4 129.603C242.75 130.033 243.02 130.533 243.21 131.103C243.39 131.673 243.49 132.283 243.49 132.933V138.483C243.49 138.703 243.44 138.863 243.35 138.973C243.26 139.083 243.11 139.143 242.9 139.143H240.94C240.7 139.143 240.53 139.103 240.44 139.023C240.35 138.943 240.3 138.783 240.3 138.543V132.943C240.3 132.703 240.26 132.473 240.19 132.263C240.11 132.053 240.01 131.873 239.87 131.713C239.73 131.553 239.57 131.433 239.37 131.353C239.18 131.263 238.96 131.223 238.72 131.223C238.51 131.223 238.3 131.263 238.11 131.353C237.92 131.433 237.75 131.553 237.6 131.703C237.45 131.853 237.34 132.033 237.25 132.243C237.16 132.453 237.12 132.693 237.12 132.943V138.493C237.12 138.713 237.07 138.873 236.98 138.983C236.89 139.093 236.74 139.153 236.53 139.153H234.57C234.33 139.153 234.16 139.113 234.07 139.033C233.98 138.953 233.93 138.793 233.93 138.553V132.953C233.93 132.713 233.89 132.483 233.82 132.273C233.75 132.063 233.65 131.883 233.51 131.723C233.38 131.563 233.22 131.443 233.03 131.363C232.84 131.273 232.63 131.233 232.39 131.233C232.19 131.233 231.99 131.273 231.79 131.353C231.59 131.433 231.42 131.553 231.26 131.703C231.1 131.853 230.97 132.033 230.87 132.243C230.77 132.453 230.7 132.683 230.69 132.943V138.543C230.69 138.643 230.67 138.733 230.63 138.833C230.59 138.933 230.54 139.003 230.46 139.053C230.39 139.103 230.32 139.133 230.25 139.143C230.18 139.163 230.11 139.173 230.03 139.173H228.11C227.87 139.173 227.69 139.113 227.58 138.993C227.47 138.873 227.42 138.713 227.42 138.523V129.043C227.42 128.933 227.44 128.833 227.49 128.743C227.54 128.653 227.6 128.583 227.69 128.533L227.64 128.563L227.7 128.533Z" fill="white"/>
<path d="M245.77 128.533C245.84 128.473 245.92 128.433 246 128.413C246.08 128.393 246.16 128.383 246.23 128.383H247.51C247.61 128.383 247.7 128.403 247.77 128.443C247.84 128.483 247.91 128.533 247.96 128.593C248.01 128.653 248.05 128.723 248.08 128.803C248.11 128.883 248.14 128.963 248.17 129.053L248.43 130.133C248.51 129.963 248.62 129.763 248.74 129.533C248.86 129.303 249.02 129.103 249.22 128.903C249.42 128.703 249.67 128.543 249.97 128.413C250.27 128.283 250.65 128.213 251.1 128.213C251.82 128.213 252.46 128.363 253 128.673C253.54 128.983 253.99 129.393 254.34 129.913C254.45 129.743 254.59 129.553 254.78 129.353C254.97 129.153 255.19 128.973 255.45 128.803C255.71 128.633 256.01 128.493 256.34 128.383C256.68 128.273 257.05 128.223 257.45 128.223C258.09 128.223 258.67 128.343 259.18 128.593C259.69 128.843 260.12 129.183 260.47 129.603C260.82 130.033 261.09 130.533 261.28 131.103C261.46 131.673 261.56 132.283 261.56 132.933V138.483C261.56 138.703 261.51 138.863 261.42 138.973C261.33 139.083 261.18 139.143 260.97 139.143H259.01C258.77 139.143 258.6 139.103 258.51 139.023C258.42 138.943 258.37 138.783 258.37 138.543V132.943C258.37 132.703 258.33 132.473 258.26 132.263C258.18 132.053 258.08 131.873 257.94 131.713C257.8 131.553 257.64 131.433 257.44 131.353C257.25 131.263 257.03 131.223 256.79 131.223C256.58 131.223 256.37 131.263 256.18 131.353C255.99 131.433 255.82 131.553 255.67 131.703C255.52 131.853 255.41 132.033 255.32 132.243C255.23 132.453 255.19 132.693 255.19 132.943V138.493C255.19 138.713 255.14 138.873 255.05 138.983C254.96 139.093 254.81 139.153 254.6 139.153H252.64C252.4 139.153 252.23 139.113 252.14 139.033C252.05 138.953 252 138.793 252 138.553V132.953C252 132.713 251.96 132.483 251.89 132.273C251.82 132.063 251.72 131.883 251.58 131.723C251.45 131.563 251.29 131.443 251.1 131.363C250.91 131.273 250.7 131.233 250.46 131.233C250.26 131.233 250.06 131.273 249.86 131.353C249.66 131.433 249.49 131.553 249.33 131.703C249.17 131.853 249.04 132.033 248.94 132.243C248.84 132.453 248.77 132.683 248.76 132.943V138.543C248.76 138.643 248.74 138.733 248.7 138.833C248.66 138.933 248.61 139.003 248.53 139.053C248.46 139.103 248.39 139.133 248.32 139.143C248.25 139.163 248.18 139.173 248.1 139.173H246.18C245.94 139.173 245.76 139.113 245.65 138.993C245.54 138.873 245.49 138.713 245.49 138.523V129.043C245.49 128.933 245.51 128.833 245.56 128.743C245.61 128.653 245.67 128.583 245.76 128.533L245.71 128.563L245.77 128.533Z" fill="white"/>
<path d="M273.62 139.013C273.55 139.073 273.47 139.113 273.39 139.133C273.31 139.153 273.23 139.163 273.16 139.163H271.88C271.78 139.163 271.69 139.143 271.62 139.103C271.55 139.063 271.48 139.013 271.43 138.953C271.38 138.893 271.34 138.823 271.3 138.743C271.26 138.663 271.24 138.583 271.22 138.493L270.96 137.413C270.88 137.583 270.75 137.783 270.59 138.013C270.43 138.233 270.22 138.443 269.98 138.643C269.73 138.833 269.43 139.003 269.09 139.133C268.75 139.263 268.35 139.333 267.9 139.333C267.26 139.333 266.67 139.213 266.14 138.963C265.61 138.713 265.17 138.373 264.8 137.943C264.43 137.513 264.14 137.013 263.94 136.433C263.74 135.863 263.63 135.243 263.63 134.593V129.043C263.63 128.833 263.68 128.663 263.77 128.553C263.86 128.443 264.01 128.383 264.22 128.383H266.18C266.42 128.383 266.59 128.423 266.68 128.503C266.77 128.583 266.82 128.743 266.82 128.983V134.513C266.82 134.753 266.88 134.983 266.99 135.203C267.1 135.423 267.25 135.613 267.43 135.783C267.61 135.953 267.82 136.083 268.04 136.173C268.27 136.273 268.5 136.313 268.74 136.313C268.94 136.313 269.15 136.263 269.37 136.173C269.59 136.073 269.79 135.953 269.97 135.783C270.15 135.623 270.3 135.433 270.42 135.213C270.54 134.993 270.6 134.763 270.6 134.523V129.003C270.6 128.903 270.62 128.813 270.66 128.713C270.7 128.613 270.75 128.543 270.83 128.493C270.9 128.443 270.97 128.413 271.04 128.403C271.11 128.383 271.18 128.373 271.26 128.373H273.18C273.42 128.373 273.6 128.433 273.71 128.553C273.82 128.673 273.87 128.833 273.87 129.023V138.513C273.87 138.623 273.85 138.723 273.8 138.813C273.75 138.903 273.69 138.973 273.6 139.023L273.65 138.993L273.62 139.013Z" fill="white"/>
<path d="M276.09 128.533C276.16 128.473 276.24 128.433 276.32 128.413C276.4 128.393 276.48 128.383 276.55 128.383H277.83C277.93 128.383 278.02 128.403 278.09 128.443C278.16 128.483 278.23 128.533 278.28 128.593C278.33 128.653 278.37 128.723 278.4 128.803C278.43 128.883 278.46 128.963 278.49 129.053L278.75 130.133C278.83 129.963 278.96 129.763 279.12 129.533C279.28 129.303 279.49 129.103 279.73 128.903C279.98 128.713 280.27 128.543 280.62 128.413C280.96 128.283 281.36 128.213 281.81 128.213C282.45 128.213 283.04 128.333 283.57 128.583C284.1 128.833 284.54 129.173 284.91 129.593C285.28 130.013 285.57 130.523 285.77 131.093C285.97 131.663 286.08 132.273 286.08 132.923V138.473C286.08 138.693 286.03 138.853 285.94 138.963C285.85 139.073 285.7 139.133 285.49 139.133H283.53C283.29 139.133 283.12 139.093 283.03 139.013C282.94 138.933 282.89 138.773 282.89 138.533V133.013C282.89 132.773 282.83 132.543 282.72 132.323C282.61 132.103 282.46 131.913 282.28 131.743C282.1 131.573 281.89 131.443 281.67 131.353C281.45 131.263 281.21 131.213 280.97 131.213C280.77 131.213 280.56 131.263 280.35 131.353C280.14 131.443 279.94 131.573 279.76 131.733C279.58 131.893 279.43 132.083 279.31 132.303C279.19 132.523 279.12 132.753 279.1 133.013V138.523C279.1 138.623 279.08 138.713 279.04 138.813C279 138.913 278.95 138.983 278.87 139.033C278.8 139.083 278.73 139.113 278.66 139.123C278.59 139.143 278.52 139.153 278.44 139.153H276.52C276.28 139.153 276.1 139.093 275.99 138.973C275.88 138.853 275.83 138.693 275.83 138.503V129.023C275.83 128.913 275.85 128.813 275.9 128.723C275.95 128.633 276.01 128.563 276.1 128.513L276.05 128.543L276.09 128.533Z" fill="white"/>
<path d="M288.11 124.753C288.11 124.513 288.16 124.343 288.26 124.253C288.36 124.153 288.52 124.103 288.73 124.103H290.7C290.9 124.103 291.06 124.153 291.18 124.253C291.3 124.353 291.36 124.523 291.36 124.753V126.403C291.36 126.473 291.34 126.543 291.31 126.623C291.28 126.703 291.24 126.783 291.18 126.853C291.12 126.923 291.05 126.983 290.97 127.033C290.89 127.083 290.8 127.103 290.69 127.103H288.72C288.3 127.103 288.09 126.873 288.09 126.403V124.753H288.11ZM288.11 129.043C288.11 128.863 288.16 128.703 288.26 128.573C288.36 128.443 288.52 128.373 288.73 128.373H290.67C290.74 128.373 290.81 128.393 290.89 128.423C290.97 128.453 291.04 128.503 291.11 128.563C291.18 128.623 291.24 128.693 291.28 128.773C291.33 128.853 291.35 128.943 291.35 129.043V138.493C291.35 138.713 291.29 138.873 291.17 138.983C291.05 139.093 290.88 139.153 290.66 139.153H288.72C288.3 139.153 288.09 138.933 288.09 138.503V129.053L288.11 129.043Z" fill="white"/>
<path d="M294.06 126.703C294.06 126.523 294.12 126.393 294.23 126.313C294.35 126.223 294.51 126.143 294.73 126.063L296.65 125.393C296.65 125.393 296.7 125.393 296.73 125.393H296.8C297.01 125.393 297.15 125.453 297.22 125.573C297.29 125.693 297.33 125.853 297.33 126.053V128.723H298.74C298.92 128.723 299.07 128.773 299.18 128.883C299.29 128.993 299.35 129.153 299.35 129.363V131.003C299.35 131.243 299.29 131.413 299.18 131.523C299.07 131.633 298.92 131.693 298.74 131.693H297.32V138.513C297.32 138.733 297.27 138.893 297.14 139.003C297.01 139.113 296.84 139.173 296.62 139.173H294.7C294.26 139.173 294.05 138.953 294.05 138.523V131.703H293.42C292.98 131.703 292.77 131.473 292.77 131.013V129.373C292.77 128.943 292.99 128.733 293.42 128.733H294.04V126.723L294.06 126.703Z" fill="white"/>
<path d="M300.04 129.193C299.95 128.963 299.95 128.773 300.04 128.613C300.13 128.453 300.32 128.373 300.62 128.373H302.71C302.85 128.373 302.97 128.413 303.06 128.503C303.15 128.593 303.22 128.703 303.26 128.833L305.66 135.663L308.01 128.833C308.07 128.653 308.15 128.533 308.25 128.473C308.35 128.413 308.48 128.383 308.65 128.383H310.83C310.99 128.383 311.11 128.403 311.2 128.443C311.29 128.483 311.35 128.543 311.39 128.613C311.43 128.683 311.44 128.763 311.43 128.853C311.42 128.943 311.4 129.023 311.36 129.113C311.14 129.643 310.91 130.223 310.66 130.853C310.41 131.483 310.14 132.143 309.87 132.823C309.6 133.503 309.32 134.193 309.03 134.903C308.75 135.603 308.47 136.293 308.2 136.973C307.93 137.653 307.67 138.303 307.42 138.923C307.17 139.543 306.94 140.123 306.74 140.643C306.53 141.163 306.35 141.623 306.2 142.023C306.05 142.423 305.93 142.723 305.85 142.943L305.88 142.903C305.84 143.053 305.77 143.183 305.67 143.273C305.57 143.363 305.44 143.413 305.3 143.413H303.34C303.09 143.413 302.91 143.363 302.82 143.263C302.73 143.163 302.68 143.023 302.68 142.823C302.68 142.753 302.68 142.693 302.71 142.653C302.73 142.613 302.75 142.583 302.76 142.573L304.09 139.113L300.05 129.203L300.04 129.193Z" fill="white"/>
<path d="M47.7797 80.9028C41.6897 81.3128 34.8697 80.3228 28.8897 80.8728C25.1297 81.2128 23.5997 84.2028 24.4197 87.8128C24.8297 89.6328 27.7297 91.5428 29.3997 91.5428H38.8397C36.8297 102.793 20.8897 102.953 15.1997 94.6128C6.47967 81.8428 17.5297 62.3128 33.2197 69.3428C37.3597 71.2028 38.6597 75.9028 44.6797 72.9428C50.5797 70.0428 46.6397 64.0428 42.6797 61.3328C23.3697 48.1428 -1.87033 63.5028 0.10967 86.9328C2.80967 118.893 48.0297 120.233 50.9297 90.8028C51.2097 87.9628 51.5197 81.6128 47.7797 80.9028Z" fill="white"/>
<path d="M105.67 60.7828C105.5 57.2228 103.2 55.3428 99.6697 55.4228C96.8697 55.4928 94.5997 57.0028 94.0497 59.8628C95.0697 74.5828 92.5897 91.3528 93.9897 105.823C94.7097 113.253 104.63 113.323 105.59 106.243C107.45 92.5028 104.27 74.9228 105.66 60.7728L105.67 60.7828Z" fill="white"/>
<path d="M121.84 56.6728C115.31 58.9128 113.51 66.4528 113.88 72.6628C104.99 71.7428 105.09 84.1228 113.88 83.3028C114.52 90.5528 113.02 99.2328 113.87 106.303C114.69 113.163 124.52 112.743 125.5 107.263V83.3128C130.5 84.2028 137.51 81.6028 134.59 75.4428C132.87 71.8128 128.8 72.7228 125.5 72.6728C123.86 62.8928 133.67 69.7828 135.45 63.9828C138.2 55.0228 127.73 54.6528 121.84 56.6728Z" fill="white"/>
<path d="M68.2497 72.3028C57.9197 73.7028 52.6297 82.5928 52.5397 91.6028C52.4497 101.183 58.2397 110.883 70.0697 111.823C84.0297 112.933 91.1197 102.383 91.1197 91.8728C91.1197 81.0328 83.5597 70.2328 68.2497 72.3028ZM74.3197 100.603C61.9297 103.383 60.7397 84.4428 70.1797 82.9228C81.8197 81.0428 81.9697 98.8928 74.3197 100.603Z" fill="white"/>
<path d="M221.15 78.7328C220.95 78.4728 220.73 78.2228 220.51 77.9728C219.96 77.3528 219.37 76.7728 218.73 76.2428C218.47 76.0228 218.21 75.8228 217.94 75.6128C217.54 75.3128 217.12 75.0228 216.68 74.7528C216.39 74.5728 216.09 74.4028 215.78 74.2328C215.32 73.9828 214.85 73.7628 214.36 73.5528C214.03 73.4128 213.7 73.2828 213.36 73.1628C210.28 72.0628 206.62 71.6828 202.36 72.3028C200.09 72.6328 198.06 73.3428 196.29 74.3528C193.51 75.9328 191.34 78.2528 189.82 80.9728C189.54 81.4628 189.29 81.9728 189.05 82.4928C187.4 86.1228 186.78 90.3128 187.21 94.3628C187.27 94.9428 187.35 95.5228 187.46 96.0928C187.51 96.3828 187.57 96.6628 187.63 96.9428C187.76 97.5128 187.9 98.0728 188.07 98.6228C188.41 99.7328 188.83 100.803 189.34 101.833C189.6 102.343 189.87 102.853 190.17 103.343C190.32 103.583 190.47 103.833 190.64 104.063C190.96 104.533 191.3 104.993 191.67 105.443C191.85 105.663 192.04 105.883 192.23 106.093C192.62 106.523 193.03 106.923 193.46 107.313C194.75 108.483 196.24 109.463 197.93 110.223C198.49 110.473 199.08 110.703 199.69 110.903C201.21 111.403 202.87 111.723 204.67 111.843C208.44 112.093 211.7 111.503 214.45 110.303C214.77 110.163 215.09 110.013 215.4 109.853C215.71 109.693 216.01 109.533 216.31 109.353C216.61 109.183 216.89 108.993 217.17 108.813C217.31 108.723 217.45 108.623 217.59 108.523C217.86 108.323 218.13 108.123 218.39 107.913C218.91 107.493 219.4 107.043 219.86 106.573C221.25 105.163 222.38 103.523 223.26 101.763C223.41 101.473 223.55 101.173 223.68 100.863C224.14 99.8028 224.52 98.7028 224.81 97.5828C224.85 97.4228 224.89 97.2628 224.93 97.1028C225.01 96.7828 225.07 96.4528 225.13 96.1228C226.14 90.7228 225.2 84.9028 222.3 80.3328C221.95 79.7828 221.57 79.2428 221.16 78.7328H221.15ZM203.52 100.413C202.92 100.233 201.07 99.0828 200.69 98.6428C196.93 94.2228 198.15 83.8728 204.68 82.8628C217.53 80.8728 216.97 104.483 203.52 100.413Z" fill="white"/>
<path d="M296.37 81.1428C296.65 81.1428 296.93 81.1428 297.21 81.1428C300.13 81.1428 301.68 80.6728 304.6 80.4328C307.27 80.2128 310.02 79.9928 313.14 79.9128H312.08C312.88 79.8128 314.09 79.6828 314.81 78.9628H315.05C316.11 77.8928 316.22 76.5328 315.77 75.2328C315.21 73.6328 313.52 72.4028 311.56 72.1728C307.49 71.6928 300.13 72.8328 296.25 73.4328C293.65 73.8328 292.23 76.0128 292.36 77.9028C292.46 79.3728 293.57 81.1028 296.38 81.1428H296.37Z" fill="white"/>
<path d="M310.62 89.5828C310.36 92.7628 312.85 96.6328 318.94 97.5928C320.2 97.7928 321.41 97.8828 322.55 97.8828C329.2 97.8828 333.81 94.7728 334.51 91.2928C334.78 89.9528 334.94 85.4928 326.23 83.0528L326.4 52.7928C327.88 52.0528 331.06 50.7728 334.15 49.5228C343.87 45.6028 347 44.1828 347.6 42.9428C348.19 41.7328 348.19 39.6428 347.6 38.4728L347.4 38.0728L323.02 27.6128H322.75C318.91 27.7428 318.58 30.9828 318.43 32.3628V32.4228V83.3228C313.37 83.6828 310.86 86.6228 310.62 89.5628V89.5828Z" fill="white"/>
<path d="M344.98 77.6728C344.59 77.5028 344.06 77.2628 343.44 76.9828C336.8 73.9528 331.18 71.9628 329.36 75.0728C328.43 76.6628 328.61 77.9428 328.92 78.7428C329.94 81.3128 333.16 81.9228 335.14 82.5128C335.32 82.5628 335.48 82.6128 335.61 82.6528C345.21 85.6428 350.41 88.7328 351.04 91.8328C351.36 93.3728 350.44 95.0628 348.33 96.8728C342.66 101.703 332.35 103.963 324.7 105.003C314.27 106.423 304.43 106.233 298.71 105.583C295.42 105.203 288.56 104.423 286.94 101.073C285.83 98.7928 287.26 92.4228 288.4 87.3128C289.07 84.3228 289.7 81.5028 289.84 79.5328C290.12 75.6628 289.62 72.4028 289.13 69.2528C288.8 67.0928 288.49 65.0528 288.44 62.9328C288.39 60.5328 288.85 57.9428 289.33 55.2028C289.94 51.7028 290.64 47.7428 290.35 43.5528C290.11 40.0328 289 34.5228 286.64 29.6328C283.92 24.0128 280.25 20.6728 276.01 19.9628C274.91 19.7828 273.69 19.8328 272.48 19.9028C272.51 19.8728 272.53 19.8528 272.56 19.8228C275.13 17.1828 276.28 13.0828 275.58 9.34278C277.59 8.40278 280.19 6.93278 279.06 3.24278C278.73 2.15278 278.12 1.41278 277.26 1.05278C275.61 0.352781 273.7 1.34278 272.3 2.07278C272.03 2.21278 271.68 2.39278 271.47 2.48278C271.2 2.36278 270.69 2.07278 270.3 1.84278C269.17 1.18278 267.88 0.442781 266.7 0.242781C262.32 -0.497219 259.04 0.442781 256.38 3.22278C252.73 7.03278 251.98 12.2228 254.41 16.7828C255.87 19.5128 258.21 21.4628 260.96 22.4028L258.76 23.1628C256.14 23.8628 249.84 24.7728 247.04 18.5828C246.76 17.9728 246.55 17.0828 246.32 16.1528C245.79 13.9928 245.19 11.5428 243.34 10.6228C242.35 10.1328 241.18 10.1728 239.87 10.7428L239.68 10.8228L239.53 10.9628C236.07 14.1828 232.47 17.3928 228.98 20.4928C224.32 24.6528 219.49 28.9428 214.93 33.3328C214.21 34.0328 213.39 34.7728 212.53 35.5528C207.59 40.0628 201.45 45.6628 201.44 51.9628C201.44 56.9528 203.6 60.6628 207.38 62.1628C210.59 63.4328 214.22 62.7128 216.4 60.3828C218.65 57.9728 218.88 54.3628 217.02 50.4828C216.66 49.7328 216 48.9028 215.3 48.0228C214.74 47.3128 213.74 46.0628 213.54 45.4528L236.15 24.8228C236.78 32.4328 241.61 38.1028 249.22 39.9128C251.32 40.4128 253.42 40.5628 255.45 40.7128C257.59 40.8628 259.61 41.0128 261.6 41.5328C269.36 43.5628 276.88 51.2228 279.47 59.7428C280.34 62.6028 279.77 64.2028 278.73 67.0928L278.52 67.6728C275.88 75.0728 267.05 89.3228 267.05 89.3228C266.24 90.4328 264.97 92.9028 264.18 93.9728C263.23 94.0028 259.06 78.1328 258.23 76.2228C255.49 70.0128 248.18 71.2728 245.89 77.6328C244.17 82.4128 243.15 88.0928 241.66 93.0028C241.01 93.1428 241.11 92.5028 240.95 92.0328C239.52 87.9528 237.66 77.0928 235.37 74.3728C231.93 70.2728 224.43 72.4228 225.3 78.6028C226.02 83.6928 232.23 101.623 234.5 106.683C236.18 110.423 238.58 112.053 242.84 111.353C248.36 110.453 250.4 97.0428 252.06 92.5128C254.67 96.8628 255.55 108.083 260.09 110.613C262.3 111.843 265.77 111.743 267.78 110.153C268.71 109.413 269.84 107.363 270.87 105.053C270.87 105.053 273.69 98.7528 274.15 97.1128L277.82 88.8328L281.96 79.7328C281.64 82.2728 281.04 84.8928 280.46 87.4628C279.28 92.6628 278.16 97.5828 279.09 101.903C280.16 106.923 283.87 110.193 290.43 111.903C295.15 113.133 301.47 113.773 308.47 113.773C311.26 113.773 314.15 113.673 317.1 113.463C327.35 112.743 336.94 110.863 343.42 108.293C353.28 104.383 358.98 98.6928 359.07 92.6728C359.15 86.9428 354.13 81.6228 344.95 77.6928L344.98 77.6728Z" fill="white"/>
<path d="M184.08 62.6328C183.33 54.5728 172.61 53.7228 171.76 63.6128C171.73 63.9728 171.64 64.2528 171.62 64.6128V64.6828C171.21 72.5228 171.97 88.6328 171.97 88.6328L151.17 59.3428C147.52 55.8428 140.45 56.3628 138.97 61.7028C139.21 75.5228 137.27 91.7028 138.55 105.353C139.29 113.303 149.85 114.133 150.69 104.383C151.16 98.9128 150.3 93.3228 150.17 87.9328C150.1 85.0728 150.62 82.2828 150.43 79.4428C158.25 89.1628 164.19 100.373 172.45 109.693C177.97 113.433 183.36 111.023 184.09 104.363C185.39 92.4228 184.33 67.7428 184.34 66.6928C184.34 66.0728 184.21 64.0128 184.08 62.6428V62.6328Z" fill="white"/>
</svg>
